<?xml version="1.0" encoding="utf-8"?>
<!-- Generator: Adobe Illustrator 22.1.0, SVG Export Plug-In . SVG Version: 6.00 Build 0)  -->
<svg version="1.1" xmlns="http://www.w3.org/2000/svg" xmlns:xlink="http://www.w3.org/1999/xlink" x="0px" y="0px"
	 viewBox="0 0 30 30" style="enable-background:new 0 0 30 30;" xml:space="preserve">
<style type="text/css">
	.st0{fill:#E5E5E5;}
	.st1{fill:none;stroke:#000000;stroke-linecap:round;stroke-linejoin:round;stroke-miterlimit:10;}
</style>
<g id="Ebene_1">
	<g>
		<path class="st0" d="M15,29C7.3,29,1,22.7,1,15S7.3,1,15,1s14,6.3,14,14S22.7,29,15,29z"/>
		<path d="M15,2c7.2,0,13,5.8,13,13s-5.8,13-13,13S2,22.2,2,15S7.8,2,15,2 M15,0C6.7,0,0,6.7,0,15s6.7,15,15,15s15-6.7,15-15
			S23.3,0,15,0L15,0z"/>
	</g>
</g>
<g id="Text">
	<g>
		<line class="st1" x1="19.4" y1="11.3" x2="17.8" y2="13"/>
		<line class="st1" x1="12.1" y1="18.6" x2="10.5" y2="20.2"/>
		<path class="st1" d="M16.6,19.7l-2.1,3.5c0,0-0.7-0.1-1.3-0.4c-0.6,0.9-1.7,0.9-2,0.6C10.5,23,11,22.2,11,22.2s-1.7-0.7-2.6-1.7
			c-0.9-0.9-0.7-2-1.3-2.6c-0.6-0.6-1.5-1.5-1.5-1.5l1.8-1.8l1.8,1.8l6.6-6.5l-1.8-1.8l1.7-1.7c0,0,1,1,1.5,1.5
			c0.5,0.5,1.9,0.6,2.8,1.4c0.9,0.9,2.1,2.1,2.1,2.1s0.6-0.7,1.2,0c0.6,0.7-0.5,2-0.5,2s1.4,3.2,0.7,4.2c-1,1.5-5.5,5.9-5.5,5.9
			l-1.7-0.4l1.3-1.4"/>
		<line class="st1" x1="21.9" y1="11.3" x2="11" y2="22.2"/>
	</g>
</g>
</svg>
