<?xml version="1.0" encoding="utf-8"?>
<!-- Generator: Adobe Illustrator 22.1.0, SVG Export Plug-In . SVG Version: 6.00 Build 0)  -->
<svg version="1.1" xmlns="http://www.w3.org/2000/svg" xmlns:xlink="http://www.w3.org/1999/xlink" x="0px" y="0px"
	 viewBox="0 0 30 30" style="enable-background:new 0 0 30 30;" xml:space="preserve">
<style type="text/css">
	.st0{fill:#E5E5E5;}
	.st1{fill:none;stroke:#000000;stroke-linecap:round;stroke-linejoin:round;stroke-miterlimit:10;}
</style>
<g id="Ebene_1">
	<g>
		<path class="st0" d="M15,29C7.3,29,1,22.7,1,15S7.3,1,15,1s14,6.3,14,14S22.7,29,15,29z"/>
		<path d="M15,2c7.2,0,13,5.8,13,13s-5.8,13-13,13S2,22.2,2,15S7.8,2,15,2 M15,0C6.7,0,0,6.7,0,15s6.7,15,15,15s15-6.7,15-15
			S23.3,0,15,0L15,0z"/>
	</g>
</g>
<g id="Text">
	<g>
		<path class="st1" d="M19.9,7.8c1.9,5.1-0.7,9.2-4.9,9.2s-6.8-4.1-4.9-9.2H19.9z"/>
		<line class="st1" x1="11.1" y1="22.7" x2="18.9" y2="22.7"/>
		<line class="st1" x1="15" y1="17" x2="15" y2="22.7"/>
		<line class="st1" x1="9.4" y1="11.3" x2="20.6" y2="11.3"/>
	</g>
</g>
</svg>
