<?xml version="1.0" encoding="utf-8"?>
<!-- Generator: Adobe Illustrator 22.1.0, SVG Export Plug-In . SVG Version: 6.00 Build 0)  -->
<svg version="1.1" xmlns="http://www.w3.org/2000/svg" xmlns:xlink="http://www.w3.org/1999/xlink" x="0px" y="0px"
	 viewBox="0 0 30 30" style="enable-background:new 0 0 30 30;" xml:space="preserve">
<style type="text/css">
	.st0{fill:#E5E5E5;}
	.st1{fill:none;stroke:#000000;stroke-linecap:round;stroke-linejoin:round;stroke-miterlimit:10;}
</style>
<g id="Ebene_1">
	<g>
		<path class="st0" d="M15,29C7.3,29,1,22.7,1,15S7.3,1,15,1s14,6.3,14,14S22.7,29,15,29z"/>
		<path d="M15,2c7.2,0,13,5.8,13,13s-5.8,13-13,13C7.8,28,2,22.2,2,15S7.8,2,15,2 M15,0C6.7,0,0,6.7,0,15s6.7,15,15,15s15-6.7,15-15
			S23.3,0,15,0L15,0z"/>
	</g>
</g>
<g id="Text">
	<g>
		<path class="st1" d="M21.9,14.2V12c0-0.7-0.5-1.2-1.2-1.2H9c-1,0-1.2-1.4-0.3-1.8C9.9,8.5,16,6.3,16,6.3"/>
		<path class="st1" d="M21.9,18.7v2.1c0,0.7-0.5,1.2-1.2,1.2H9.2c-0.7,0-1.2-0.5-1.2-1.2V10"/>
		<path class="st1" d="M22.3,18.7h-3.9c-0.5,0-0.9-0.4-0.9-0.9V15c0-0.5,0.4-0.9,0.9-0.9h3.9c0.5,0,0.9,0.4,0.9,0.9v2.9
			C23.1,18.4,22.7,18.7,22.3,18.7z"/>
		<polyline class="st1" points="13,9.4 18.3,7.5 18.4,9.4 		"/>
		<line class="st1" x1="19.6" y1="16.5" x2="20" y2="16.5"/>
	</g>
</g>
</svg>
