<?xml version="1.0" encoding="utf-8"?>
<!-- Generator: Adobe Illustrator 22.1.0, SVG Export Plug-In . SVG Version: 6.00 Build 0)  -->
<svg version="1.1" xmlns="http://www.w3.org/2000/svg" xmlns:xlink="http://www.w3.org/1999/xlink" x="0px" y="0px"
	 viewBox="0 0 30 30" style="enable-background:new 0 0 30 30;" xml:space="preserve">
<style type="text/css">
	.st0{fill:#E5E5E5;}
	.st1{fill:none;stroke:#000000;stroke-linecap:round;stroke-linejoin:round;stroke-miterlimit:10;}
</style>
<g id="Ebene_1">
	<g>
		<path class="st0" d="M15,29C7.3,29,1,22.7,1,15S7.3,1,15,1s14,6.3,14,14S22.7,29,15,29z"/>
		<path d="M15,2c7.2,0,13,5.8,13,13s-5.8,13-13,13S2,22.2,2,15S7.8,2,15,2 M15,0C6.7,0,0,6.7,0,15s6.7,15,15,15s15-6.7,15-15
			S23.3,0,15,0L15,0z"/>
	</g>
</g>
<g id="Text">
	<g>
		<path class="st1" d="M12.8,23.5l2.8-3.2c0,0,1.7,0.7,3.1-0.6c1.4-1.3,3.7-4.3,4.4-5.5s-0.7-2-1.5-1.8c0.4-1.1,0.4-2.4-1.2-2.4
			c0.4-1.6-0.5-2.3-1.7-2.1c-0.2-1.8-1.7-1.8-2.4-1.3s-1.2,1.1-1.2,1.1"/>
		<path class="st1" d="M6.7,18.3l3.2-3.2c0,0,0.4-3.4,0.5-4.6c0.1-1.2,0.7-1.9,1.7-2.2s1.6-0.4,2.2-0.5c0.7-0.1,1.3,0.1,2,1.1
			s1.1,1.6,1.4,2.1c0.7,1.1-0.6,2.5-1.7,1.5c-0.4-0.4-1.4-1.2-1.4-1.2s1.3,3.4,0.9,5"/>
		<line class="st1" x1="15.6" y1="20.4" x2="13.8" y2="19.7"/>
		<path class="st1" d="M22,15.9c-0.6,0.8-2,0.2-2.4-1.3c-0.9,0.1-1.3-0.3-1.7-1"/>
	</g>
</g>
</svg>
